<svg xmlns="http://www.w3.org/2000/svg" viewBox="0 0 81.3948974609375 81" fill="none">
    <path d="M68.3417525552387 0.3778021565705282V9.703520165341617C64.8030719364845 6.797597487186362 60.651432810777536 4.427557840995554 56.10730049854114 2.583014638626941C43.7422670572667 -2.4559686888599983 32.58367577713106 -0.04468879483724957 22.962948703807996 9.136776982069893C16.961373339581634 14.866178795001257 11.02009511565226 20.698647521036534 5.48092266583589 26.871052298891033C3.208981348517482 29.395792185777534 1.2084645496953483 32.77567785120303 0.565080330458565 36.06293312718678C-2.3301586432109436 50.98416583289398 6.154477926205126 67.7807269889972 20.188331475268406 75.98313549018344C33.56865390744824 83.80453597442066 45.963898338271065 82.32070200015578 59.40479255610741 71.28420306621153C59.45497775362167 71.24300626228191 63.707236951956716 66.57503386065711 68.33176545125575 59.95957618235957V79.2911140069318H81.28978319151709V0.3778021565705282H68.3417525552387ZM59.70640309639211 66.68838749086345C49.130809011260425 80.07410295919406 31.367246512009324 79.96074932898772 20.912146836431774 66.44120666728575C15.564002718049032 59.52663522469924 12.68886528792118 50.355477637168086 12.668766241155518 39.09252112041076C12.839645590303574 30.508605247076304 14.990992627028016 21.522983083788166 21.012692005779993 13.825397721179423C31.276613543364167 0.7075413752231714 48.6781435232338 0.5529834507592324 59.21378919243374 13.454451711493183C70.94539056359041 27.839801385235933 71.1765920207954 52.16913572046947 59.70640309639211 66.68838749086345Z" fill="black">
    </path>
</svg>