<svg xmlns="http://www.w3.org/2000/svg" viewBox="0 0 78.955810546875 80.058349609375" fill="none">
    <path d="M78.955810546875 0.31985598516922964H65.98082230039186V44.418889936616154C65.8399011701753 46.74059054295021 65.5480645033438 49.00007596945461 65.06483495398412 51.208090203007565H65.0548405475858C63.99793207096148 56.06787031419971 62.03503065432778 60.63881208047988 58.95500446251978 64.9928752279161C48.95934876338138 79.0357657980617 31.02213774012312 79.24215029018741 20.63405167375396 65.49859219167203C15.24879066015316 58.379076793815514 13.195364907566505 50.09371388959281 13.09469624911924 41.25141268882269C12.953775118902664 29.39604781911343 12.6618135219912 0.030984158995809436 12.6618135219912 0.030984158995809436L0.019064680009054837 0C0.019064680009054837 0 -0.1419772891127188 28.7561559494598 0.4720408113967316 41.168708975876434C0.6733606380800657 45.21344524528407 2.616085846797122 49.82561393795738 5.192943648480766 52.9313757262411C10.819769464729406 59.71008186591426 17.100879095845283 65.9938150287097 23.613509151178675 71.91650026036515C32.57202031234548 80.07793252524847 43.000433808531945 82.45110432453397 54.25413541306121 77.44690504088584C59.18637497064132 75.25937934044947 62.99124548648882 73.79419936245303 65.98082230039186 72.83473634821253V79.33509826969194H78.955810546875V0.31985598516922964Z" fill="black">
    </path>
</svg>