<svg xmlns="http://www.w3.org/2000/svg" viewBox="0 0 77.5374755859375 79.685791015625" fill="none">
    <path d="M77.30760564223898 0.12357179895294287C77.30760564223898 0.12357179895294287 68.56706281557726 0 64.64905179039074 0C64.64905179039074 2.6878079197727214 64.55854984943353 22.346799097150697 64.4982152221287 30.544031098098998C64.47826989078828 33.47898660484387 63.89561689900585 36.40372012927678 62.609641660831365 39.02977231688668C56.672165837425894 51.17124345373417 43.089145877948525 55.55821908206265 30.792350473287403 48.462667457703226C22.765252148673003 43.828619037395114 17.671738089273827 36.63034895663246 14.446827328167391 29.050873730625753C13.331658921259544 26.249801260503542 12.738883673821844 23.25306508993167 12.728861144823275 20.225438587446305C12.6886713021723 12.728437306532292 12.578199098210472 0.12357179895294287 12.578199098210472 0.12357179895294287C12.578199098210472 0.12357179895294287 3.928183144170142 0 0.010056261540197635 0C0.010056261540197635 3.480759498875854 0 79.38790370104627 0 79.38790370104627C0 79.38790370104627 8.760513089666336 79.53200871998091 12.748956066148763 79.53200871998091V43.25194964501482C19.681030768509153 46.61946952520536 26.823977486466287 49.55442503195023 33.99706658641165 52.38641276565012C45.389839848067595 56.89680013164753 55.76789437777896 55.11518340966325 64.60891181106813 46.639913489829304C64.72933174903599 52.77759057656438 64.72933174903599 79.36721041978056 64.72933174903599 79.36721041978056C64.72933174903599 79.36721041978056 73.39931796608093 79.51156475535696 77.38788560088423 79.51156475535696C77.38788560088423 56.21716296622224 77.30760564223898 0.12357179895294287 77.30760564223898 0.12357179895294287Z" fill="black">
    </path>
</svg>