<svg xmlns="http://www.w3.org/2000/svg" viewBox="0 0 142.84375 79.420166015625" fill="none">
    <path d="M142.8010467111014 0.16504546459790212H129.82723814466783V41.92863625437063C129.82723814466783 45.653062281468536 129.4044506118881 49.377488308566434 128.3575957167832 52.94733342438811C127.04927682473776 57.40420826048951 124.95556703452799 61.592876475087415 121.90590291739511 65.45140581293707C112.28392793924826 77.58438412368882 96.20002136145105 77.94548912805945 86.11480310314685 66.23554807692308C80.46847934877623 59.67397546984266 77.79115794361888 51.85352988417832 77.49922727272728 43.19749830638113C77.47899939903847 42.61988013548951 77.46901032561189 42.06273956512238 77.44878245192308 41.48487166739511C77.36837041083916 38.43121192089161 77.20729660183567 0 77.20729660183567 0L64.9784231861888 0.17537266815996505C64.9784231861888 0.17537266815996505 65.1192691215035 43.0429173951049 65.08905217438812 43.919708315122385C65.0086401333042 46.31334003496504 64.7369373361014 48.65527829982518 64.27394378277972 50.925045509178325H64.21350988854896C63.16665499344406 55.732786549388116 61.234268739073435 60.25159364073427 58.17436582167832 64.55388756555944C48.290677119755244 78.44069744318182 30.546087084790212 78.64697180944057 20.2696779611014 65.04909588068182C14.945302043269232 58.0127925590035 12.912151010708044 49.82125289554196 12.811511095935316 41.072322934877626C12.680654234047203 29.341654556381123 12.479349431818182 2.3729193760926575 12.388773508522727 0.18569987172202798H0.12960822770979022C0.12960822770979022 0.18569987172202798 -0.27300137674825176 28.712342930506992 0.34096453507430075 40.98966335227273C0.5422643427666084 44.98229600087413 2.4646939881993006 49.552796547202796 5.011143547858392 52.627433347902105C10.57708023382867 59.33359779283217 16.79725128387238 65.5443041958042 23.22879112762238 71.4043941215035C32.085902753496505 79.4723190013112 42.36241176791958 81.72160861013987 53.534441215034974 76.8829014423077C61.50597153627623 73.4266820367133 67.43423688811188 68.43314423076923 71.49030015297203 62.06735746284965C80.93147290209791 76.16069143356644 94.04612740384616 86.20944957386364 120.1847855659965 73.65368373033218C124.17067559003497 71.73453299825175 127.30075174825176 70.44494361888113 129.81699934440562 69.60935762674826V79.34870421765736H142.79080791083916V70.3932501638986C142.80079698426573 70.4037386909965 142.81103578452797 70.4037386909965 142.8310139313811 70.41397749125875V64.44051158216783C142.8310139313811 45.611857353583915 142.8010467111014 0.16504546459790212 142.8010467111014 0.16504546459790212Z" fill="black">
    </path>
</svg>