<svg xmlns="http://www.w3.org/2000/svg" width="1176" height="193" viewBox="0 0 1176 193" fill="black"><path d="M898.467 189.171C888.664 189.171 867.415 188.804 867.415 188.804C867.415 188.804 867.219 73.7619 867.194 31.1666C867.194 18.741 862.709 12.7856 850.259 12.614C835.824 12.418 796.047 12.2954 796.047 12.2954L796.243 0.114746H969.026L969.198 12.8591C969.198 12.8591 923.098 12.7855 898.418 13.7658C898.467 73.664 898.467 127.803 898.467 189.171Z" fill="black"/><path d="M779.896 0.432759C779.896 0.432759 758.573 0.138672 749.015 0.138672C749.015 6.53532 748.795 53.3215 748.648 72.83C748.599 79.8149 747.177 86.7753 744.04 93.0249C729.556 121.92 696.42 132.361 666.422 115.474C646.84 104.446 634.415 87.3145 626.548 69.2764C623.827 62.6102 622.381 55.4783 622.357 48.2729C622.259 30.4309 621.989 0.432759 621.989 0.432759C621.989 0.432759 600.887 0.138672 591.329 0.138672C591.329 8.42245 591.305 189.073 591.305 189.073C591.305 189.073 612.676 189.416 622.406 189.416V103.073C639.316 111.087 656.742 118.072 674.24 124.812C702.033 135.547 727.35 131.307 748.917 111.136C749.211 125.743 749.211 189.024 749.211 189.024C749.211 189.024 770.362 189.367 780.092 189.367C780.092 133.929 779.896 0.432759 779.896 0.432759Z" fill="black"/><path d="M347.72 0.530738H316.129V99.7402C316.129 108.588 315.099 117.435 312.55 125.915C309.364 136.502 304.267 146.453 296.841 155.619C273.411 184.441 234.247 185.298 209.689 157.482C195.94 141.894 189.421 123.317 188.71 102.755C188.661 101.382 188.637 100.059 188.588 98.6863C188.392 91.4319 188 0.138672 188 0.138672L158.222 0.55527C158.222 0.55527 158.565 102.387 158.492 104.47C158.296 110.156 157.634 115.719 156.507 121.111H156.36C153.811 132.532 149.105 143.267 141.655 153.487C117.588 186.475 74.3795 186.965 49.3566 154.663C36.3917 137.948 31.4411 118.489 31.196 97.7059C30.8774 69.8401 30.3872 5.77555 30.1666 0.579802H0.315596C0.315596 0.579802 -0.664755 68.345 0.830248 97.5098C1.32041 106.994 6.00152 117.852 12.2021 125.155C25.7552 141.086 40.9013 155.84 56.562 169.76C78.1293 188.926 103.152 194.268 130.356 182.774C149.767 174.564 164.202 162.702 174.079 147.58C197.068 181.058 229.002 204.929 292.65 175.103C302.355 170.544 309.977 167.481 316.104 165.496V188.631H347.695V167.358C347.72 167.383 347.744 167.383 347.793 167.407V153.217C347.793 108.49 347.72 0.530738 347.72 0.530738Z" fill="black"/><path d="M1176 0.898421H1144.41V105.647C1144.06 111.161 1143.35 116.528 1142.18 121.773H1142.15C1139.58 133.316 1134.8 144.174 1127.3 154.516C1102.96 187.872 1059.29 188.362 1034 155.717C1020.89 138.806 1015.89 119.126 1015.64 98.1225C1015.3 69.9626 1014.59 0.212268 1014.59 0.212268L983.804 0.138672C983.804 0.138672 983.412 68.4432 984.907 97.9266C985.397 107.534 990.127 118.489 996.401 125.866C1010.1 141.968 1025.39 156.893 1041.25 170.961C1063.06 190.347 1088.45 195.984 1115.85 184.097C1127.86 178.902 1137.13 175.422 1144.41 173.142V188.582H1176V0.898421Z" fill="black"/><path d="M529.987 0.898551V23.0785C521.36 16.1671 511.238 10.5303 500.161 6.14335C470.015 -5.84118 442.811 -0.106286 419.357 21.7305C404.726 35.3571 390.241 49.2288 376.737 63.9093C371.198 69.9138 366.321 77.9524 364.753 85.7706C357.694 121.258 378.379 161.207 412.593 180.715C445.213 199.317 475.432 195.788 508.199 169.54C508.322 169.442 518.689 158.339 529.963 142.605V188.583H561.554V0.898551H529.987ZM508.935 158.609C483.152 190.445 439.846 190.176 414.357 158.021C401.319 141.576 394.309 119.763 394.26 92.976C394.677 72.5606 399.922 51.1894 414.602 32.8818C439.625 1.68279 482.049 1.3152 507.734 31.9995C536.335 66.213 536.898 124.077 508.935 158.609Z" fill="black"/>
    <path d="M898.467 189.171C888.664 189.171 867.415 188.804 867.415 188.804C867.415 188.804 867.219 73.7619 867.194 31.1666C867.194 18.741 862.709 12.7856 850.259 12.614C835.824 12.418 796.047 12.2954 796.047 12.2954L796.243 0.114746H969.026L969.198 12.8591C969.198 12.8591 923.098 12.7855 898.418 13.7658C898.467 73.664 898.467 127.803 898.467 189.171Z" fill="black"></path>
    <path d="M779.896 0.432759C779.896 0.432759 758.573 0.138672 749.015 0.138672C749.015 6.53532 748.795 53.3215 748.648 72.83C748.599 79.8149 747.177 86.7753 744.04 93.0249C729.556 121.92 696.42 132.361 666.422 115.474C646.84 104.446 634.415 87.3145 626.548 69.2764C623.827 62.6102 622.381 55.4783 622.357 48.2729C622.259 30.4309 621.989 0.432759 621.989 0.432759C621.989 0.432759 600.887 0.138672 591.329 0.138672C591.329 8.42245 591.305 189.073 591.305 189.073C591.305 189.073 612.676 189.416 622.406 189.416V103.073C639.316 111.087 656.742 118.072 674.24 124.812C702.033 135.547 727.35 131.307 748.917 111.136C749.211 125.743 749.211 189.024 749.211 189.024C749.211 189.024 770.362 189.367 780.092 189.367C780.092 133.929 779.896 0.432759 779.896 0.432759Z" fill="black"></path>
    <path d="M347.72 0.530738H316.129V99.7402C316.129 108.588 315.099 117.435 312.55 125.915C309.364 136.502 304.267 146.453 296.841 155.619C273.411 184.441 234.247 185.298 209.689 157.482C195.94 141.894 189.421 123.317 188.71 102.755C188.661 101.382 188.637 100.059 188.588 98.6863C188.392 91.4319 188 0.138672 188 0.138672L158.222 0.55527C158.222 0.55527 158.565 102.387 158.492 104.47C158.296 110.156 157.634 115.719 156.507 121.111H156.36C153.811 132.532 149.105 143.267 141.655 153.487C117.588 186.475 74.3795 186.965 49.3566 154.663C36.3917 137.948 31.4411 118.489 31.196 97.7059C30.8774 69.8401 30.3872 5.77555 30.1666 0.579802H0.315596C0.315596 0.579802 -0.664755 68.345 0.830248 97.5098C1.32041 106.994 6.00152 117.852 12.2021 125.155C25.7552 141.086 40.9013 155.84 56.562 169.76C78.1293 188.926 103.152 194.268 130.356 182.774C149.767 174.564 164.202 162.702 174.079 147.58C197.068 181.058 229.002 204.929 292.65 175.103C302.355 170.544 309.977 167.481 316.104 165.496V188.631H347.695V167.358C347.72 167.383 347.744 167.383 347.793 167.407V153.217C347.793 108.49 347.72 0.530738 347.72 0.530738Z" fill="black"></path>
    <path d="M1176 0.898421H1144.41V105.647C1144.06 111.161 1143.35 116.528 1142.18 121.773H1142.15C1139.58 133.316 1134.8 144.174 1127.3 154.516C1102.96 187.872 1059.29 188.362 1034 155.717C1020.89 138.806 1015.89 119.126 1015.64 98.1225C1015.3 69.9626 1014.59 0.212268 1014.59 0.212268L983.804 0.138672C983.804 0.138672 983.412 68.4432 984.907 97.9266C985.397 107.534 990.127 118.489 996.401 125.866C1010.1 141.968 1025.39 156.893 1041.25 170.961C1063.06 190.347 1088.45 195.984 1115.85 184.097C1127.86 178.902 1137.13 175.422 1144.41 173.142V188.582H1176V0.898421Z" fill="black"></path>
    <path d="M529.987 0.898551V23.0785C521.36 16.1671 511.238 10.5303 500.161 6.14335C470.015 -5.84118 442.811 -0.106286 419.357 21.7305C404.726 35.3571 390.241 49.2288 376.737 63.9093C371.198 69.9138 366.321 77.9524 364.753 85.7706C357.694 121.258 378.379 161.207 412.593 180.715C445.213 199.317 475.432 195.788 508.199 169.54C508.322 169.442 518.689 158.339 529.963 142.605V188.583H561.554V0.898551H529.987ZM508.935 158.609C483.152 190.445 439.846 190.176 414.357 158.021C401.319 141.576 394.309 119.763 394.26 92.976C394.677 72.5606 399.922 51.1894 414.602 32.8818C439.625 1.68279 482.049 1.3152 507.734 31.9995C536.335 66.213 536.898 124.077 508.935 158.609Z" fill="black"></path>
</svg>